<?xml version="1.0" encoding="UTF-8"?>
<svg version="1.1" xmlns="http://www.w3.org/2000/svg" width="612" height="612">
<path d="M0 0 C201.96 0 403.92 0 612 0 C612 201.96 612 403.92 612 612 C410.04 612 208.08 612 0 612 C0 410.04 0 208.08 0 0 Z " fill="#3BB44B" transform="translate(0,0)"/>
<path d="M0 0 C1.07477367 3.83720848 1.33725577 7.60084648 1.62109375 11.5625 C2.01807241 14.11625961 2.61905554 15.82235682 4 18 C6.40952023 19.24714403 6.40952023 19.24714403 9 20 C9.99 20.33 10.98 20.66 12 21 C13.97826812 21.10247144 15.95771963 21.18280745 17.9375 21.25 C27.54612727 21.956202 36.28638405 25.15227385 43.26171875 31.96875 C48.99137169 38.66407479 51.46711228 45.94952477 53.44921875 54.39453125 C53.66448212 55.30746445 53.87974548 56.22039764 54.10153198 57.16099548 C56.57719336 68.03219042 58.10775481 79.02471688 59.625 90.0625 C59.91313218 92.11015717 60.20219293 94.15768389 60.4921875 96.20507812 C60.92149058 99.23912563 61.3499003 102.27327675 61.77452087 105.3079834 C62.99045558 113.99662843 64.28766727 122.67175255 65.59985352 131.34628296 C66.82288842 139.45728406 68.02251652 147.57176974 69.21704102 155.68701172 C69.53441499 157.83764447 69.85346365 159.98803067 70.17407227 162.13818359 C70.64487153 165.29726329 71.11011827 168.45711764 71.57421875 171.6171875 C71.71792404 172.5734201 71.86162933 173.52965271 72.00968933 174.51486206 C73.09892354 181.99551189 73.61595455 187.36868077 70.3125 194.375 C67.936223 199.61885477 65.91390459 204.88183563 64.1875 210.375 C63.9810083 211.01614746 63.7745166 211.65729492 63.56176758 212.31787109 C59.8613309 224.36876821 58.43880677 240.39855943 64 252 C70.11414674 262.19024456 77.76371797 266.57723262 89.05831432 269.53991604 C93.29179838 270.20203916 97.47162361 270.15368473 101.75056458 270.15821838 C103.23317694 270.16562535 103.23317694 270.16562535 104.74574107 270.17318195 C108.06071697 270.18855114 111.3756735 270.19691605 114.69067383 270.20532227 C117.06576711 270.21490124 119.4408587 270.22491133 121.81594849 270.23532104 C127.59783949 270.25956444 133.37973328 270.27930766 139.16164754 270.29707379 C145.89010709 270.31799065 152.61854142 270.34444556 159.3469797 270.37124526 C171.34580921 270.41889034 183.34465034 270.46216287 195.34350586 270.50268555 C206.99846297 270.54205617 218.65340977 270.58348615 230.30834961 270.62768555 C231.38617808 270.63177196 231.38617808 270.63177196 232.48578087 270.63594092 C236.090589 270.64962065 239.69539697 270.66334088 243.30020487 270.67708123 C273.20011511 270.79099756 303.10004747 270.89774475 333 271 C332.67 271.99 332.34 272.98 332 274 C331.4225 274.268125 330.845 274.53625 330.25 274.8125 C327.57355 276.22507083 326.09165475 278.12860478 324.23046875 280.4765625 C322.62446031 282.46495391 320.83722483 284.22612775 319 286 C318.34 286.66 317.68 287.32 317 288 C316.34 287.5875 315.68 287.175 315 286.75 C314.01 286.1725 313.02 285.595 312 285 C311.43023437 284.64035156 310.86046875 284.28070313 310.2734375 283.91015625 C304.13611179 280.36162019 297.80464002 279.74700758 290.91796875 281.54296875 C285.46867816 283.69181755 281.8827962 286.2952901 279.1875 291.5 C277.00299554 298.22927811 276.67786068 305.91433388 279.625 312.4375 C283.05149618 318.24082628 287.51954539 321.18422045 294 323 C296.28452807 323.27580863 298.57818383 323.4843786 300.875 323.625 C302.02742188 323.69976562 303.17984375 323.77453125 304.3671875 323.8515625 C305.23601562 323.90054687 306.10484375 323.94953125 307 324 C306.34 324.33 305.68 324.66 305 325 C305 325.99 305 326.98 305 328 C302.6875 330.5 302.6875 330.5 300 333 C299.443125 333.598125 298.88625 334.19625 298.3125 334.8125 C297 336 297 336 295 336 C295 336.66 295 337.32 295 338 C294.34 338 293.68 338 293 338 C292.7525 338.61875 292.505 339.2375 292.25 339.875 C290.79371361 342.35068687 289.62187494 342.95125002 287 344 C287 344.66 287 345.32 287 346 C286.34 346 285.68 346 285 346 C284.7525 346.61875 284.505 347.2375 284.25 347.875 C282.79371361 350.35068687 281.62187494 350.95125002 279 352 C279 352.66 279 353.32 279 354 C278.38125 354.0825 277.7625 354.165 277.125 354.25 C274.84957521 354.79923543 274.84957521 354.79923543 273.875 356.875 C273.58625 357.57625 273.2975 358.2775 273 359 C272.34 359.99 271.68 360.98 271 362 C270.34 362 269.68 362 269 362 C268.7525 362.61875 268.505 363.2375 268.25 363.875 C266.79371361 366.35068687 265.62187494 366.95125002 263 368 C263 368.66 263 369.32 263 370 C262.34 370 261.68 370 261 370 C260.7525 370.61875 260.505 371.2375 260.25 371.875 C258.79371361 374.35068687 257.62187494 374.95125002 255 376 C255 376.66 255 377.32 255 378 C254.34 378 253.68 378 253 378 C252.7525 378.61875 252.505 379.2375 252.25 379.875 C250.79371361 382.35068687 249.62187494 382.95125002 247 384 C247 384.66 247 385.32 247 386 C246.34 386 245.68 386 245 386 C244.7525 386.61875 244.505 387.2375 244.25 387.875 C242.79371361 390.35068687 241.62187494 390.95125002 239 392 C239 392.66 239 393.32 239 394 C238.34 394 237.68 394 237 394 C236.7525 394.61875 236.505 395.2375 236.25 395.875 C234.79371361 398.35068687 233.62187494 398.95125002 231 400 C231 400.66 231 401.32 231 402 C230.195625 402.474375 229.39125 402.94875 228.5625 403.4375 C225.7081924 404.79983672 225.7081924 404.79983672 225 408 C224.34 408 223.68 408 223 408 C223 408.66 223 409.32 223 410 C222.34 410 221.68 410 221 410 C220.7525 410.61875 220.505 411.2375 220.25 411.875 C218.79371361 414.35068687 217.62187494 414.95125002 215 416 C215 416.66 215 417.32 215 418 C214.34 418 213.68 418 213 418 C212.7525 418.61875 212.505 419.2375 212.25 419.875 C210.79371361 422.35068687 209.62187494 422.95125002 207 424 C207 424.66 207 425.32 207 426 C206.34 426 205.68 426 205 426 C204.7525 426.61875 204.505 427.2375 204.25 427.875 C202.79371361 430.35068687 201.62187494 430.95125002 199 432 C199 432.66 199 433.32 199 434 C198.34 434 197.68 434 197 434 C196.7525 434.61875 196.505 435.2375 196.25 435.875 C194.79371361 438.35068687 193.62187494 438.95125002 191 440 C191 440.66 191 441.32 191 442 C190.34 442 189.68 442 189 442 C188.7525 442.61875 188.505 443.2375 188.25 443.875 C186.79371361 446.35068687 185.62187494 446.95125002 183 448 C183 448.66 183 449.32 183 450 C180.99373273 452.50630535 179.76814697 453.84233583 176.57959723 454.49679399 C175.66978732 454.4952751 174.75997741 454.49375622 173.8225975 454.49219131 C172.2431232 454.50413761 172.2431232 454.50413761 170.63174033 454.51632524 C169.47610721 454.50467387 168.32047409 454.4930225 167.12982178 454.48101807 C165.28709667 454.48614462 165.28709667 454.48614462 163.40714478 454.49137473 C159.99536832 454.49683079 156.58450658 454.48430657 153.1728406 454.46426249 C149.49462167 454.44700763 145.8164316 454.45283279 142.13818359 454.45587158 C135.76482176 454.4579702 129.39162358 454.44540766 123.01830292 454.42292023 C113.80355057 454.39042832 104.58887744 454.3799961 95.37407401 454.37496826 C80.42414249 454.36621119 65.47429821 454.33958445 50.52441406 454.30175781 C36.00098101 454.26504838 21.47757164 454.2367314 6.95410156 454.21972656 C6.05905378 454.21867567 5.164006 454.21762477 4.24183556 454.21654204 C-0.24830312 454.21132193 -4.73844198 454.20626709 -9.22858095 454.20129442 C-46.48578224 454.15981956 -83.74288433 454.08935992 -121 454 C-121.04578793 412.89453827 -121.08102454 371.78907986 -121.10213066 330.68359772 C-121.10463204 325.82959245 -121.10722069 320.97558723 -121.10986328 316.12158203 C-121.1103879 315.15524595 -121.11091252 314.18890987 -121.11145304 313.19329087 C-121.12015322 297.55104469 -121.13592108 281.90881322 -121.15430559 266.26657577 C-121.17301539 250.21357224 -121.18411901 234.16057641 -121.18817699 218.10756242 C-121.1909198 208.20377076 -121.19957967 198.30002069 -121.21583293 188.39624183 C-121.22641313 181.60282375 -121.22959827 174.80942714 -121.22700275 168.01600142 C-121.22572308 164.09786849 -121.22767077 160.17980821 -121.23841095 156.26168823 C-121.24818396 152.67007241 -121.24860878 149.0785777 -121.24179779 145.48695616 C-121.24056019 143.58159746 -121.24914959 141.67624006 -121.25816262 139.77090228 C-121.19876253 122.63851503 -121.19876253 122.63851503 -116.8125 117.375 C-115.4203125 116.199375 -115.4203125 116.199375 -114 115 C-112.85916261 113.7012424 -111.73534121 112.38742401 -110.625 111.0625 C-107.83866547 107.84004354 -104.90575395 105.07956703 -101.62890625 102.3671875 C-98.4562108 99.70425367 -95.64881439 96.84345871 -93.125 93.5625 C-90.86842716 90.84133864 -88.43782796 88.73131032 -85.734375 86.47265625 C-82.53825929 83.75883728 -79.68094819 80.88523265 -77.125 77.5625 C-74.86842716 74.84133864 -72.43782796 72.73131032 -69.734375 70.47265625 C-66.53825929 67.75883728 -63.68094819 64.88523265 -61.125 61.5625 C-58.86842716 58.84133864 -56.43782796 56.73131032 -53.734375 54.47265625 C-50.53825929 51.75883728 -47.68094819 48.88523265 -45.125 45.5625 C-42.86842716 42.84133864 -40.43782796 40.73131032 -37.734375 38.47265625 C-34.53825929 35.75883728 -31.68094819 32.88523265 -29.125 29.5625 C-26.86842716 26.84133864 -24.43782796 24.73131032 -21.734375 22.47265625 C-18.53825929 19.75883728 -15.68094819 16.88523265 -13.125 13.5625 C-10.86005651 10.83124461 -8.40328038 8.74981984 -5.68359375 6.4921875 C-3.48714195 4.54544832 -1.73506227 2.35968468 0 0 Z " fill="#018D46" transform="translate(121,158)"/>
<path d="M0 0 C3.30120421 1.95551629 5.58356934 4.06474495 8.171875 6.87890625 C9.4403125 8.11640625 9.4403125 8.11640625 10.734375 9.37890625 C17.171875 15.98147035 17.171875 15.98147035 17.171875 18.87890625 C17.831875 18.87890625 18.491875 18.87890625 19.171875 18.87890625 C20.46861102 21.41809631 21.75935337 23.96004863 23.046875 26.50390625 C23.59408203 27.57318359 23.59408203 27.57318359 24.15234375 28.6640625 C27.04851946 34.40375618 29.30226001 39.34181354 29.171875 45.87890625 C29.77590316 45.87738737 30.37993132 45.87586849 31.00226337 45.87430358 C66.77575525 45.78485517 102.54922793 45.71619239 138.32280831 45.67464493 C142.61502669 45.66964191 146.90724485 45.66446464 151.19946289 45.65917969 C152.48125623 45.65760582 152.48125623 45.65760582 153.78894439 45.65600017 C167.63825253 45.6385793 181.48749447 45.6070324 195.3367633 45.57029507 C209.53989952 45.53293235 223.74300099 45.5106803 237.94618434 45.50255227 C246.715345 45.49705478 255.48431859 45.47967119 264.25342169 45.44724038 C270.26094578 45.42615007 276.2683727 45.41969371 282.27593116 45.42490074 C285.74571282 45.42747113 289.21516686 45.42344065 292.68489075 45.40208435 C296.44134139 45.38231668 300.19697774 45.38691943 303.95344543 45.39788818 C305.60955447 45.38041113 305.60955447 45.38041113 307.29912025 45.36258101 C308.80245667 45.37452731 308.80245667 45.37452731 310.33616352 45.38671494 C311.20382448 45.38519605 312.07148543 45.38367717 312.96543914 45.38211226 C315.171875 45.87890625 315.171875 45.87890625 316.97801322 47.66748071 C320.20105505 53.63761656 316.27877316 62.36160912 314.4765625 68.40625 C312.7606999 74.19899123 311.23021295 80.04227496 309.671875 85.87890625 C307.8276678 92.76975169 305.97630307 99.65419311 303.984375 106.50390625 C302.50846915 111.59856034 301.20877086 116.72010225 299.95019531 121.87231445 C298.18005931 129.01559956 296.20215473 136.10048837 294.234375 143.19140625 C290.52068694 156.5791491 286.84695489 169.97139811 283.55932617 183.47094727 C279.52232568 199.9786058 279.52232568 199.9786058 275.171875 202.87890625 C272.11054795 203.06909886 269.14090855 203.13954128 266.079422 203.11941528 C264.66675152 203.12197856 264.66675152 203.12197856 263.22554225 203.12459362 C260.056291 203.12789909 256.88724946 203.11686738 253.71801758 203.10595703 C251.45159409 203.10539315 249.18517023 203.10570903 246.91874695 203.10684204 C240.75380016 203.10741744 234.5889307 203.09563287 228.42400193 203.08169413 C221.98577148 203.06921791 215.54753938 203.06801873 209.10929871 203.06564331 C198.29916887 203.06012716 187.48907085 203.04762248 176.67895508 203.02978516 C165.54386538 203.01143069 154.40878341 202.99727207 143.27368164 202.98876953 C142.58746083 202.98824408 141.90124002 202.98771864 141.19422463 202.98717727 C137.7517002 202.98456722 134.30917571 202.9820398 130.86665118 202.97955346 C102.30170655 202.95881574 73.73679189 202.92343711 45.171875 202.87890625 C44.95337891 204.27677368 44.95337891 204.27677368 44.73046875 205.70288086 C44.18108806 208.82652305 43.31403153 211.48943551 42.171875 214.44140625 C39.8714085 220.40401243 39.02694708 225.80851868 38.609375 232.19140625 C38.52558594 233.44566406 38.44179687 234.69992187 38.35546875 235.9921875 C38.29488281 236.94480469 38.23429687 237.89742187 38.171875 238.87890625 C39.40139641 238.88037281 40.63091782 238.88183937 41.89769745 238.88335037 C71.09422979 238.91906432 100.29066001 238.97532275 129.48709723 239.0568272 C133.08189254 239.06684447 136.6766883 239.07668863 140.27148438 239.08642578 C141.34495797 239.08933784 141.34495797 239.08933784 142.4401179 239.09230873 C154.02272416 239.12331671 165.60531061 239.14030602 177.18795055 239.15210047 C189.0757761 239.16451828 200.96349781 239.19203384 212.8512578 239.23351932 C219.52719866 239.25638483 226.20302821 239.27181517 232.87901306 239.2707901 C239.16303534 239.27004523 245.44672967 239.28792711 251.73066711 239.32007408 C254.03647364 239.32859058 256.34231688 239.33031119 258.64813232 239.32470894 C261.79864185 239.31807419 264.9481064 239.33597836 268.09851074 239.35992432 C269.46429803 239.34828369 269.46429803 239.34828369 270.85767698 239.3364079 C278.02842304 239.43276144 283.19573863 241.34919034 288.671875 246.00390625 C291.4208053 251.27268932 290.76583207 257.26765901 289.171875 262.87890625 C288.511875 262.87890625 287.851875 262.87890625 287.171875 262.87890625 C286.98625 263.47703125 286.800625 264.07515625 286.609375 264.69140625 C284.52073406 267.86977289 281.7052655 268.84659123 278.171875 269.87890625 C274.8987382 270.28901719 271.66424985 270.28441233 268.36871338 270.25985718 C267.39860817 270.26453715 266.42850296 270.26921712 265.42900062 270.27403891 C262.1872274 270.2859785 258.94587772 270.2765354 255.70410156 270.26708984 C253.37611647 270.2711561 251.04813331 270.27649828 248.72015381 270.28302002 C242.40180129 270.29669592 236.08359575 270.29139292 229.76524067 270.28188276 C223.81900048 270.27505457 217.8727784 270.28026869 211.92653772 270.28466435 C199.42678222 270.2932142 186.92709277 270.28339188 174.42734811 270.26726325 C163.71878487 270.25387295 153.01031927 270.25617828 142.30175781 270.27001953 C129.85182202 270.28610417 117.40194417 270.2923771 104.95199943 270.28318274 C98.3671686 270.27851331 91.7824049 270.27786103 85.19757843 270.28779221 C79.00216765 270.2964831 72.80694041 270.29040098 66.61154938 270.27310944 C64.34246118 270.26915526 62.07335745 270.27026023 59.80427551 270.27689743 C56.69696818 270.28514569 53.59024192 270.27475144 50.48297119 270.25985718 C49.59374159 270.26654934 48.70451199 270.27324151 47.78833604 270.28013647 C36.82074175 270.1787913 25.52555115 267.24086226 17.421875 259.56640625 C8.96389228 250.51116279 7.70268329 240.74888431 7.99609375 228.80859375 C8.55641046 216.28240241 12.19419731 200.75387554 18.95703125 190.0546875 C22.85782625 179.8574324 17.90322795 164.488577 16.296875 153.81640625 C16.03734914 152.06972252 15.77823275 150.32297789 15.51953125 148.57617188 C14.49931282 141.70091416 13.46761222 134.82741137 12.42626953 127.95532227 C11.07643204 119.03133465 9.77404513 110.10252695 8.5234375 101.1640625 C8.09288111 98.11455683 7.66139956 95.06518375 7.22949219 92.01586914 C6.94139692 89.96847429 6.6565583 87.92061851 6.375 85.87231445 C4.86378403 74.90462959 3.16336024 64.05520456 0.62109375 53.2734375 C0.31995163 51.99038475 0.31995163 51.99038475 0.01272583 50.68141174 C-2.51152616 40.44719245 -6.70014255 31.69482563 -15.828125 25.87890625 C-22.7272952 22.35386147 -29.15172304 21.60203084 -36.80078125 21.2109375 C-41.93444474 20.64789054 -46.02034697 18.90087599 -49.4765625 15.03515625 C-51.87865441 11.20291713 -52.14725139 7.3336501 -51.828125 2.87890625 C-50.27718073 -1.78107376 -48.08845167 -5.10668448 -44.265625 -8.18359375 C-29.38452172 -12.24207646 -13.40179306 -6.30586551 0 0 Z " fill="#FBFDFC" transform="translate(172.828125,159.12109375)"/>
<path d="M0 0 C0.33 0 0.66 0 1 0 C1 93.72 1 187.44 1 284 C-92.72 284 -186.44 284 -283 284 C-283 283.67 -283 283.34 -283 283 C-282.18772949 282.91548584 -281.37545898 282.83097168 -280.53857422 282.74389648 C-253.98569253 279.90253346 -228.15668704 275.2854864 -203 266 C-201.59411233 265.50028155 -200.18785778 265.00159413 -198.78125 264.50390625 C-191.53525324 261.90321194 -184.56799412 258.98865293 -177.74609375 255.39453125 C-175 254 -175 254 -171.90234375 252.71875 C-166.45535445 250.42118367 -161.3145868 247.50625831 -156.125 244.6875 C-155.08730469 244.13126953 -154.04960937 243.57503906 -152.98046875 243.00195312 C-147.35463901 239.95492428 -141.96500958 236.77096469 -136.73779297 233.07739258 C-135 232 -135 232 -133 232 C-133 231.34 -133 230.68 -133 230 C-131.48828125 228.84375 -131.48828125 228.84375 -129.3125 227.5 C-125.18363601 224.8387417 -121.26099675 221.99844047 -117.375 219 C-116.53775391 218.35442139 -116.53775391 218.35442139 -115.68359375 217.69580078 C-112.64981209 215.33689176 -109.695727 212.91512901 -106.8125 210.375 C-104 208 -104 208 -102 208 C-102 207.34 -102 206.68 -102 206 C-100.671875 204.6953125 -100.671875 204.6953125 -98.75 203.125 C-94.8672554 199.82675459 -91.22651583 196.34825555 -87.625 192.75 C-87.10131836 192.23066895 -86.57763672 191.71133789 -86.03808594 191.17626953 C-83.7465979 188.87657096 -81.8073856 186.71107839 -80 184 C-79.34 184 -78.68 184 -78 184 C-77.67 183.01 -77.34 182.02 -77 181 C-76.34 181 -75.68 181 -75 181 C-74.75121094 180.43796875 -74.50242187 179.8759375 -74.24609375 179.296875 C-72.79580313 176.62361204 -71.04454976 174.55820984 -69.0625 172.25 C-64.50858598 166.80156715 -60.52640039 161.06613437 -56.63110352 155.13183594 C-55.46857488 153.38835929 -54.2399465 151.68929463 -53 150 C-52.34 150 -51.68 150 -51 150 C-50.67 148.68 -50.34 147.36 -50 146 C-49.34 146 -48.68 146 -48 146 C-47.76925781 145.18015625 -47.53851562 144.3603125 -47.30078125 143.515625 C-45.72255382 139.25014547 -43.55016187 135.61994424 -41.1875 131.75 C-37.5122159 125.61035977 -34.04878348 119.47866489 -31 113 C-30.505 112.00226563 -30.01 111.00453125 -29.5 109.9765625 C-12.56269272 75.08257296 -4.10946148 38.39586399 0 0 Z " fill="#FDFEFE" transform="translate(611,328)"/>
<path d="M0 0 C0.33 0 0.66 0 1 0 C1.04487549 0.62229492 1.08975098 1.24458984 1.13598633 1.88574219 C3.24556146 30.52131995 8.03869837 57.66480653 17 85 C17.52652566 86.81085459 18.04807156 88.62317175 18.5625 90.4375 C19.69941335 94.23767998 21.122097 97.77782005 22.796875 101.37109375 C23.70061582 103.34582612 24.55751339 105.34210385 25.390625 107.34765625 C35.04341962 130.54344898 48.25327826 152.5314584 63.7890625 172.2734375 C65 174 65 174 65 176 C65.99 176.33 66.98 176.66 68 177 C69.7265625 178.93359375 69.7265625 178.93359375 71.625 181.4375 C78.23896778 189.90194613 85.49366201 197.58197096 93.0625 205.1875 C94.0534668 206.18547607 94.0534668 206.18547607 95.06445312 207.20361328 C99.5459298 211.67065507 104.18717582 215.8932199 109 220 C109.90105469 220.77085937 110.80210938 221.54171875 111.73046875 222.3359375 C118.00726246 227.54497775 124.52036963 232.29575391 131.28759766 236.84082031 C132.99946266 237.99963626 134.69378867 239.180922 136.38671875 240.3671875 C160.652638 257.19950903 187.81364179 269.413751 216 278 C216.82854492 278.26119629 217.65708984 278.52239258 218.51074219 278.79150391 C241.19535707 285.92838527 264.2894596 289.60718108 288 291 C288 291.33 288 291.66 288 292 C192.96 292 97.92 292 0 292 C0 195.64 0 99.28 0 0 Z " fill="#FDFEFE" transform="translate(0,320)"/>
<path d="M0 0 C94.71 0 189.42 0 287 0 C287 93.72 287 187.44 287 284 C286.67 284 286.34 284 286 284 C285.90203125 283.06285156 285.8040625 282.12570312 285.703125 281.16015625 C281.7471106 244.76022371 273.91444602 209.18405229 258 176 C257.67644531 175.32259766 257.35289062 174.64519531 257.01953125 173.94726562 C253.36463951 166.3504121 249.56752632 158.93840566 245.03125 151.8203125 C244 150 244 150 244 148 C243.34 148 242.68 148 242 148 C241.6596875 147.33355469 241.319375 146.66710937 240.96875 145.98046875 C236.88770555 138.21997198 232.07757729 131.33903245 226.76416016 124.38183594 C225.91857141 123.274448 225.07439605 122.16597927 224.23168945 121.05639648 C223.05599941 119.51110398 221.87195185 117.9721807 220.6875 116.43359375 C219 114 219 114 219 112 C218.34 112 217.68 112 217 112 C215.58984375 110.6015625 215.58984375 110.6015625 213.9375 108.625 C213.30714844 107.88636719 212.67679688 107.14773437 212.02734375 106.38671875 C211.35832031 105.59910156 210.68929687 104.81148438 210 104 C199.29615385 91.65273504 187.88496498 80.06637889 175 70 C173.78963185 69.01421188 172.58143573 68.02575309 171.375 67.03515625 C164.1953262 61.16311437 156.98529533 55.75557397 149 51 C146.28661862 49.38406905 143.63709852 47.74148016 141 46 C141 45.34 141 44.68 141 44 C139.7934375 43.6596875 139.7934375 43.6596875 138.5625 43.3125 C134.87249557 41.95302469 131.69214589 40.23530751 128.2890625 38.2890625 C125.57379473 36.75998679 122.79932676 35.39029627 120 34.0234375 C117.94366153 32.97117055 115.98507771 31.8055197 114 30.625 C108.70656161 27.65705505 103.07658095 25.67126456 97.390625 23.609375 C94.38224023 22.51812472 91.39716776 21.38163367 88.421875 20.203125 C87.65286865 19.89874512 86.8838623 19.59436523 86.09155273 19.28076172 C84.63656331 18.70250668 83.18281326 18.12111669 81.73071289 17.53564453 C55.50190014 7.16689913 27.8434021 3.71964489 0 1 C0 0.67 0 0.34 0 0 Z " fill="#FEFEFE" transform="translate(325,0)"/>
<path d="M0 0 C95.04 0 190.08 0 288 0 C288 0.33 288 0.66 288 1 C286.16115234 1.14695313 286.16115234 1.14695313 284.28515625 1.296875 C264.61829334 2.96464045 245.01406648 5.5799514 226 11 C225.26604004 11.20318848 224.53208008 11.40637695 223.77587891 11.61572266 C212.17649152 14.84272862 200.92366851 18.76534331 189.69335938 23.10424805 C188.71947266 23.47976807 187.74558594 23.85528809 186.7421875 24.2421875 C185.44063721 24.75048096 185.44063721 24.75048096 184.11279297 25.26904297 C182 26 182 26 180 26 C180 26.66 180 27.32 180 28 C179.47535156 28.18433594 178.95070312 28.36867188 178.41015625 28.55859375 C159.23845184 35.73602053 140.02595083 47.26839278 124.25 60.265625 C122 62 122 62 120 62 C120 62.66 120 63.32 120 64 C118.46296943 65.20723464 116.86665431 66.33917977 115.25 67.4375 C106.43453355 73.69693558 98.59790237 80.87665033 91.640625 89.16796875 C89.28947948 91.79341458 86.64519942 94.01159896 83.96875 96.296875 C74.86505299 104.17229543 67.83045465 113.70616158 60.859375 123.45703125 C59.56355265 125.22925887 58.22364988 126.96973188 56.8515625 128.68359375 C54.97343991 131.03322813 53.52996971 133.41082048 52 136 C51.08776658 137.35715708 50.17051679 138.71094757 49.25 140.0625 C35.11802567 161.20837805 24.81984542 184.1412691 16.4375 208.0625 C16.13392578 208.92166016 15.83035156 209.78082031 15.51757812 210.66601562 C6.8472442 235.39252348 2.89942401 261.94190822 1 288 C0.67 288 0.34 288 0 288 C0 192.96 0 97.92 0 0 Z " fill="#FEFEFE" transform="translate(0,0)"/>
<path d="M0 0 C75.9 0 151.8 0 230 0 C229.34 0.33 228.68 0.66 228 1 C228 1.66 228 2.32 228 3 C227.29875 3.391875 226.5975 3.78375 225.875 4.1875 C222.71745493 6.17812624 220.94657779 8.30881992 218.609375 11.1640625 C216.47893036 13.5944241 214.09570737 15.59406987 211.60546875 17.64453125 C209.82215723 19.10550505 209.82215723 19.10550505 207.6875 21.375 C206 23 206 23 204 23 C203.62875 23.8353125 203.62875 23.8353125 203.25 24.6875 C201.77075182 27.42410913 200.06532561 29.67650869 198 32 C197.34 32 196.68 32 196 32 C195.34 33.32 194.68 34.64 194 36 C168.23582019 36.02333679 142.47164197 36.04098303 116.70745373 36.05181217 C104.74531387 36.05697346 92.78318057 36.064013 80.82104492 36.07543945 C70.39762677 36.08539136 59.97421337 36.09185464 49.55079061 36.09408849 C44.02918206 36.09539473 38.5075871 36.09847515 32.98598289 36.10573006 C27.7929198 36.11249825 22.59987594 36.11461532 17.40680885 36.11310768 C15.49718751 36.11338365 13.58756554 36.11538404 11.677948 36.11920547 C9.07781116 36.12415516 6.47774766 36.12299352 3.87760925 36.12025452 C2.7351054 36.12462378 2.7351054 36.12462378 1.56952065 36.12908131 C-1.56194105 36.12011908 -4.00541322 35.99819559 -7 35 C-7.7109919 22.00464802 -5.13649617 11.98515773 0 0 Z " fill="#028C45" transform="translate(218,363)"/>
<path d="M0 0 C19.14 0 38.28 0 58 0 C56 11 56 11 51 29 C34.17 29 17.34 29 0 29 C0 19.43 0 9.86 0 0 Z " fill="#08904B" transform="translate(404,221)"/>
<path d="M0 0 C5.60390069 3.2502624 9.66961693 6.16079255 11.65234375 12.44140625 C13.09369388 19.67198085 13.15024926 26.67816383 9.3203125 33.1328125 C5.70403634 38.21450775 2.0961948 40.95261965 -3.875 42.8125 C-11.21840405 43.68842891 -17.84060942 42.87474827 -23.8203125 38.3359375 C-29.19646978 33.40966785 -31.89258402 28.11808255 -32.25 20.8125 C-31.92466526 13.59855578 -29.02342847 7.84651895 -23.875 2.8125 C-17.10209663 -2.25930206 -7.88041364 -3.04033697 0 0 Z " fill="#F9FCFB" transform="translate(237.875,439.1875)"/>
<path d="M0 0 C4.50945697 3.41769371 8.98129657 7.6281851 9.85546875 13.40625 C10.63003207 26.33965611 10.63003207 26.33965611 7.85546875 31.40625 C3.3397653 36.35976403 -2.64377637 40.70350055 -9.37109375 41.75390625 C-15.6809911 42.00326645 -21.37002642 40.92952014 -26.12890625 36.6015625 C-32.01857142 30.15213576 -33.59219965 25.10862058 -33.37890625 16.40625 C-32.95247623 10.94794575 -32.07897173 7.2893985 -28.08203125 3.3984375 C-19.94354769 -3.21408039 -9.5972271 -5.54066719 0 0 Z " fill="#FAFCFB" transform="translate(431.14453125,440.59375)"/>
<path d="M0 0 C16.17 0 32.34 0 49 0 C49 9.57 49 19.14 49 29 C33.82 29 18.64 29 3 29 C2.505 25.143125 2.01 21.28625 1.5 17.3125 C1.34337891 16.10505127 1.18675781 14.89760254 1.02539062 13.65356445 C0.90357422 12.691521 0.78175781 11.72947754 0.65625 10.73828125 C0.53056641 9.75899658 0.40488281 8.77971191 0.27539062 7.77075195 C0 5 0 5 0 0 Z " fill="#028C46" transform="translate(206,221)"/>
<path d="M0 0 C15.51 0 31.02 0 47 0 C47 9.57 47 19.14 47 29 C31.49 29 15.98 29 0 29 C0 19.43 0 9.86 0 0 Z " fill="#08904B" transform="translate(339,221)"/>
<path d="M0 0 C15.51 0 31.02 0 47 0 C47 9.24 47 18.48 47 28 C31.49 28 15.98 28 0 28 C0 18.76 0 9.52 0 0 Z " fill="#048D47" transform="translate(339,267)"/>
<path d="M0 0 C15.18 0 30.36 0 46 0 C46 9.24 46 18.48 46 28 C30.82 28 15.64 28 0 28 C0 18.76 0 9.52 0 0 Z " fill="#028C45" transform="translate(274,267)"/>
<path d="M0 0 C15.18 0 30.36 0 46 0 C46 9.24 46 18.48 46 28 C30.82 28 15.64 28 0 28 C0 18.76 0 9.52 0 0 Z " fill="#028C46" transform="translate(274,222)"/>
<path d="M0 0 C15.51 0 31.02 0 47 0 C47 8.91 47 17.82 47 27 C31.49 27 15.98 27 0 27 C0 18.09 0 9.18 0 0 Z " fill="#058E49" transform="translate(339,312)"/>
<path d="M0 0 C15.18 0 30.36 0 46 0 C46 8.91 46 17.82 46 27 C30.82 27 15.64 27 0 27 C0 18.09 0 9.18 0 0 Z " fill="#048D47" transform="translate(274,312)"/>
<path d="M0 0 C15.18 0 30.36 0 46 0 C43.79650881 9.36483754 41.531342 18.71841268 39 28 C26.13 28 13.26 28 0 28 C0 18.76 0 9.52 0 0 Z " fill="#028D46" transform="translate(404,267)"/>
<path d="M0 0 C14.19 0 28.38 0 43 0 C43 9.24 43 18.48 43 28 C30.13 28 17.26 28 4 28 C2.68750472 25.37500944 2.57215057 23.03752245 2.24609375 20.1171875 C2.1267749 19.06644043 2.00745605 18.01569336 1.88452148 16.93310547 C1.73700439 15.59393066 1.5894873 14.25475586 1.4375 12.875 C0.963125 8.62625 0.48875 4.3775 0 0 Z " fill="#028C45" transform="translate(212,267)"/>
<path d="M0 0 C12.21 0 24.42 0 37 0 C37 8.91 37 17.82 37 27 C26.11 27 15.22 27 4 27 C3.525625 24.40125 3.05125 21.8025 2.5625 19.125 C2.41498291 18.32852051 2.26746582 17.53204102 2.11547852 16.71142578 C1.11156055 11.11361718 0.57057236 5.70572362 0 0 Z " fill="#078E49" transform="translate(218,312)"/>
<path d="M0 0 C10.89 0 21.78 0 33 0 C31.875 9 31.875 9 30.80859375 12.9375 C30.60806396 13.68902344 30.40753418 14.44054687 30.20092773 15.21484375 C29.82303101 16.59349609 29.82303101 16.59349609 29.4375 18 C28.633125 20.97 27.82875 23.94 27 27 C18.09 27 9.18 27 0 27 C0 18.09 0 9.18 0 0 Z " fill="#028C46" transform="translate(404,312)"/>
<path d="M0 0 C10.89 0 21.78 0 33 0 C33 0.33 33 0.66 33 1 C23.1 1 13.2 1 3 1 C3 8.59 3 16.18 3 24 C8.94 24 14.88 24 21 24 C21 24.66 21 25.32 21 26 C21.99 26 22.98 26 24 26 C23.95875 24.88625 23.9175 23.7725 23.875 22.625 C24 19 24 19 26 17 C26.99 17.33 27.98 17.66 29 18 C28.34 20.97 27.68 23.94 27 27 C18.09 27 9.18 27 0 27 C0 18.09 0 9.18 0 0 Z " fill="#189454" transform="translate(404,312)"/>
<path d="M0 0 C14.19 0 28.38 0 43 0 C43 9.24 43 18.48 43 28 C30.13 28 17.26 28 4 28 C4 27.34 4 26.68 4 26 C15.55 26 27.1 26 39 26 C39.91357293 21.43213534 40.11609566 17.30084907 40.0625 12.6875 C40.05798828 11.94693359 40.05347656 11.20636719 40.04882812 10.44335938 C40.03712175 8.62887101 40.01918898 6.81442466 40 5 C40.66 5 41.32 5 42 5 C42 3.68 42 2.36 42 1 C28.47 1 14.94 1 1 1 C0.67 1.66 0.34 2.32 0 3 C0 2.01 0 1.02 0 0 Z " fill="#0F8F50" transform="translate(212,267)"/>
<path d="M0 0 C5.66666667 0 11.33333333 0 17 0 C15.59728106 4.90951628 12.91739783 6.88207111 9 10 C7.1873495 12.16220617 7.1873495 12.16220617 6 14 C5.34 13.5875 4.68 13.175 4 12.75 C3.01 12.1725 2.02 11.595 1 11 C0.40703125 10.65195312 -0.1859375 10.30390625 -0.796875 9.9453125 C-5.8295891 7.18738517 -10.28637678 6.26451959 -16 6 C-16 5.67 -16 5.34 -16 5 C-11.38 5 -6.76 5 -2 5 C-1.34 3.35 -0.68 1.7 0 0 Z " fill="#0A8E4B" transform="translate(432,432)"/>
<path d="M0 0 C15.18 0 30.36 0 46 0 C45.67 0.66 45.34 1.32 45 2 C30.81 2 16.62 2 2 2 C2.33 2.99 2.66 3.98 3 5 C3.07973476 6.33525717 3.10771338 7.67412083 3.09765625 9.01171875 C3.09515869 9.69451904 3.09266113 10.37731934 3.09008789 11.08081055 C3.07643188 12.37112183 3.07643188 12.37112183 3.0625 13.6875 C3.041875 16.430625 3.02125 19.17375 3 22 C13.89 22 24.78 22 36 22 C36 22.33 36 22.66 36 23 C25.44 23 14.88 23 4 23 C3.67 24.32 3.34 25.64 3 27 C14.22 27 25.44 27 37 27 C37 26.01 37 25.02 37 24 C37.66 24 38.32 24 39 24 C39 25.32 39 26.64 39 28 C26.13 28 13.26 28 0 28 C0 18.76 0 9.52 0 0 Z " fill="#158C51" transform="translate(404,267)"/>
<path d="M0 0 C0.99 0 1.98 0 3 0 C2.25790832 9.58006189 0.88648622 19.03080374 -0.5390625 28.52929688 C-1.63871284 36.00938111 -2.47451171 43.45734153 -3 51 C-3.33 51 -3.66 51 -4 51 C-4 35.82 -4 20.64 -4 5 C-2.68 4.34 -1.36 3.68 0 3 C0 2.01 0 1.02 0 0 Z " fill="#EDF8EE" transform="translate(4,237)"/>
<path d="M0 0 C1.21911575 0.00666183 1.21911575 0.00666183 2.46286011 0.01345825 C3.38366364 0.01360931 4.30446716 0.01376038 5.25317383 0.01391602 C6.2490451 0.02423859 7.24491638 0.03456116 8.27096558 0.04519653 C9.28915375 0.04802643 10.30734192 0.05085632 11.35638428 0.05377197 C14.61709208 0.06499133 17.87752791 0.09009907 21.13815308 0.11550903 C23.34518037 0.12553656 25.55221195 0.13466281 27.75924683 0.14285278 C33.1773088 0.16493636 38.59521151 0.19843108 44.01315308 0.24050903 C44.01315308 0.57050903 44.01315308 0.90050903 44.01315308 1.24050903 C42.17430542 1.38746216 42.17430542 1.38746216 40.29830933 1.53738403 C22.70380212 3.03199166 5.30396156 5.65800787 -11.98684692 9.24050903 C-11.98684692 8.58050903 -11.98684692 7.92050903 -11.98684692 7.24050903 C-8.02684692 6.58050903 -4.06684692 5.92050903 0.01315308 5.24050903 C0.01315308 4.58050903 0.01315308 3.92050903 0.01315308 3.24050903 C-1.30684692 2.91050903 -2.62684692 2.58050903 -3.98684692 2.24050903 C-1.98684692 0.24050903 -1.98684692 0.24050903 0 0 Z " fill="#E7F8E9" transform="translate(243.98684692382813,-0.240509033203125)"/>
<path d="M0 0 C16.83 0 33.66 0 51 0 C51 0.66 51 1.32 51 2 C35.16 2.33 19.32 2.66 3 3 C2.67 10.59 2.34 18.18 2 26 C1.34 26 0.68 26 0 26 C0 17.42 0 8.84 0 0 Z " fill="#058844" transform="translate(405,222)"/>
<path d="M0 0 C16.17 0 32.34 0 49 0 C49 9.57 49 19.14 49 29 C47.35 28.67 45.7 28.34 44 28 C44.66 27.67 45.32 27.34 46 27 C45.505 14.625 45.505 14.625 45 2 C30.15 1.67 15.3 1.34 0 1 C0 0.67 0 0.34 0 0 Z " fill="#3DAA74" transform="translate(206,221)"/>
<path d="M0 0 C6.656827 -0.07588693 13.31354303 -0.12853061 19.97070312 -0.16479492 C22.23669605 -0.17990804 24.5026596 -0.20039913 26.76855469 -0.22631836 C30.02025589 -0.26259062 33.27157136 -0.2797009 36.5234375 -0.29296875 C38.05005508 -0.31619453 38.05005508 -0.31619453 39.60751343 -0.33988953 C40.54833771 -0.34011612 41.48916199 -0.34034271 42.45849609 -0.34057617 C43.28900482 -0.34723801 44.11951355 -0.35389984 44.97518921 -0.36076355 C45.64337677 -0.24171158 46.31156433 -0.12265961 47 0 C47.66 0.99 48.32 1.98 49 3 C34.48 3 19.96 3 5 3 C5 2.67 5 2.34 5 2 C3.35 1.67 1.7 1.34 0 1 C0 0.67 0 0.34 0 0 Z " fill="#ECF8F1" transform="translate(339,339)"/>
<path d="M0 0 C21.78 0.495 21.78 0.495 44 1 C44 1.33 44 1.66 44 2 C30.8 2.33 17.6 2.66 4 3 C4 10.92 4 18.84 4 27 C2.68 27 1.36 27 0 27 C0 18.09 0 9.18 0 0 Z " fill="#048843" transform="translate(340,222)"/>
<path d="M0 0 C1.05083414 3.23333582 0.87543412 5.22701035 0.0625 8.5 C-1.29180625 15.09215294 -1.10966643 21.57567595 -0.92553711 28.26953125 C-0.90885986 29.11 -0.89218262 29.95046875 -0.875 30.81640625 C-0.85179687 31.57381104 -0.82859375 32.33121582 -0.8046875 33.11157227 C-1 35 -1 35 -3 37 C-4.81810557 30.90399896 -4.67153537 24.31662751 -5 18 C-5.06703125 16.9378125 -5.1340625 15.875625 -5.203125 14.78125 C-5.43330012 8.79669681 -4.96981617 5.57130347 -1 1 C-0.67 0.67 -0.34 0.34 0 0 Z " fill="#098E4B" transform="translate(183,369)"/>
<path d="M0 0 C14.52 0 29.04 0 44 0 C44 0.99 44 1.98 44 3 C29.48 3 14.96 3 0 3 C0 2.01 0 1.02 0 0 Z " fill="#F3F5F2" transform="translate(342,250)"/>
<path d="M0 0 C0.33 0 0.66 0 1 0 C1.0501123 0.62229492 1.10022461 1.24458984 1.15185547 1.88574219 C2.28910984 15.94024632 3.54166002 29.97511339 5 44 C3.515 44.495 3.515 44.495 2 45 C2 42.03 2 39.06 2 36 C1.34 36 0.68 36 0 36 C0 24.12 0 12.24 0 0 Z " fill="#DDF0E6" transform="translate(0,320)"/>
<path d="M0 0 C1.20628008 2.33214148 2.1654738 4.49642139 3 7 C1.35 7 -0.3 7 -2 7 C-1.95875 7.825 -1.9175 8.65 -1.875 9.5 C-2.02213993 13.61991815 -2.90523395 17.03147307 -4 21 C-6.31 21.33 -8.62 21.66 -11 22 C-8.85300113 14.0561042 -4.23181461 6.98565217 0 0 Z " fill="#46B753" transform="translate(41,152)"/>
<path d="M0 0 C0.66 0.33 1.32 0.66 2 1 C2 1.66 2 2.32 2 3 C1.21625 3.309375 0.4325 3.61875 -0.375 3.9375 C-2.92330128 4.92875038 -2.92330128 4.92875038 -5 6 C-5.65555119 8.52733235 -5.65555119 8.52733235 -6 11 C-6.94875 11.309375 -7.8975 11.61875 -8.875 11.9375 C-11.86080408 12.87394742 -11.86080408 12.87394742 -14 14 C-16.00800456 13.71887936 -18.01014051 13.38932033 -20 13 C-16.50904207 9.0246945 -12.43925015 6.72274091 -7.875 4.1875 C-7.14667969 3.76791016 -6.41835937 3.34832031 -5.66796875 2.91601562 C-3.81494731 1.87647402 -1.91035606 0.92998652 0 0 Z " fill="#42B64F" transform="translate(164,34)"/>
<path d="M0 0 C4.66308199 -0.02468646 9.32612608 -0.04285349 13.98925781 -0.05493164 C15.57617861 -0.05996588 17.16309477 -0.06679369 18.75 -0.07543945 C21.02865749 -0.08754482 23.30725376 -0.09323733 25.5859375 -0.09765625 C26.65320572 -0.10539818 26.65320572 -0.10539818 27.74203491 -0.11329651 C32.77225659 -0.11387171 32.77225659 -0.11387171 35 1 C35 1.99 35 2.98 35 4 C23.28213196 3.38582209 11.65954766 2.3053624 0 1 C0 0.67 0 0.34 0 0 Z " fill="#EAF8EA" transform="translate(325,0)"/>
<path d="M0 0 C15.51 0 31.02 0 47 0 C47 0.33 47 0.66 47 1 C32.81 1 18.62 1 4 1 C4.33 1.99 4.66 2.98 5 4 C5.12781786 6.67394964 5.04391871 9.32095857 5 12 C4.67 12 4.34 12 4 12 C4 9.69 4 7.38 4 5 C2.68 5.33 1.36 5.66 0 6 C0 4.02 0 2.04 0 0 Z " fill="#D0F1DE" transform="translate(208,266)"/>
<path d="M0 0 C8.58 0 17.16 0 26 0 C24.02 0.99 24.02 0.99 22 2 C21.01 2.66 20.02 3.32 19 4 C17.09887695 4.22705078 17.09887695 4.22705078 14.98828125 4.1953125 C13.85229492 4.18564453 13.85229492 4.18564453 12.69335938 4.17578125 C11.90767578 4.15902344 11.12199219 4.14226562 10.3125 4.125 C9.51521484 4.11597656 8.71792969 4.10695313 7.89648438 4.09765625 C5.930861 4.07411585 3.96539225 4.03824547 2 4 C1.34 2.68 0.68 1.36 0 0 Z " fill="#EAF8F0" transform="translate(404,339)"/>
<path d="M0 0 C4.7857794 3.58933455 4.7857794 3.58933455 5.3671875 7.41796875 C5.37909389 11.44828068 5.09544849 15.11205577 4 19 C3.34 19 2.68 19 2 19 C1.7525 19.639375 1.505 20.27875 1.25 20.9375 C0 23 0 23 -2.125 23.75 C-3.053125 23.87375 -3.053125 23.87375 -4 24 C-4.33 23.34 -4.66 22.68 -5 22 C-4.01 21.67 -3.02 21.34 -2 21 C2.00981998 15.74297849 2.53375705 10.40508456 2 4 C1.01 3.67 0.02 3.34 -1 3 C-0.67 2.01 -0.34 1.02 0 0 Z " fill="#ECF6EB" transform="translate(458,403)"/>
<path d="M0 0 C-0.66 1.32 -1.32 2.64 -2 4 C-10.91 4 -19.82 4 -29 4 C-29 3.67 -29 3.34 -29 3 C-25.10480894 2.49491028 -21.20875343 1.99682267 -17.3125 1.5 C-16.20970703 1.35691406 -15.10691406 1.21382812 -13.97070312 1.06640625 C-12.90400391 0.93105469 -11.83730469 0.79570313 -10.73828125 0.65625 C-9.75899658 0.53056641 -8.77971191 0.40488281 -7.77075195 0.27539062 C-5.15767911 0.01567205 -2.62364032 -0.05025329 0 0 Z " fill="#EEF9EE" transform="translate(357,608)"/>
<path d="M0 0 C3.0916909 2.52956528 3.90931332 5.22454612 5 9 C5.66 9 6.32 9 7 9 C8.2890625 10.6796875 8.2890625 10.6796875 9.625 12.875 C10.29402344 13.95394531 10.29402344 13.95394531 10.9765625 15.0546875 C12 17 12 17 12 19 C10.35 19.66 8.7 20.32 7 21 C6.67 18.03 6.34 15.06 6 12 C4.35 12.33 2.7 12.66 1 13 C1.66 11.68 2.32 10.36 3 9 C2.34 9 1.68 9 1 9 C1.33 7.68 1.66 6.36 2 5 C1.34 4.67 0.68 4.34 0 4 C0 2.68 0 1.36 0 0 Z " fill="#4FBB5E" transform="translate(562,139)"/>
<path d="M0 0 C0.33 0 0.66 0 1 0 C1.40368295 6.45892714 0.5915262 11.06108578 -2 17 C-1.01 16.67 -0.02 16.34 1 16 C0.67 17.98 0.34 19.96 0 22 C-1.32 21.67 -2.64 21.34 -4 21 C-3.938125 21.9075 -3.87625 22.815 -3.8125 23.75 C-4.01672076 27.28982642 -4.64551835 28.44931155 -7 31 C-6.57691496 23.24344102 -4.42992534 16.26554897 -2.15625 8.890625 C-1.25595073 5.94908117 -0.52582772 3.03546004 0 0 Z " fill="#4FB860" transform="translate(462,317)"/>
<path d="M0 0 C1.32 0 2.64 0 4 0 C3.03644647 16.8929385 3.03644647 16.8929385 2 24 C1.67 24 1.34 24 1 24 C-0.32915021 16.02509872 -0.08801359 8.05813281 0 0 Z " fill="#0D8C4D" transform="translate(1,320)"/>
<path d="M0 0 C0.33 0 0.66 0 1 0 C1.11618764 3.91641711 1.18724654 7.83239101 1.25 11.75 C1.28351562 12.86117188 1.31703125 13.97234375 1.3515625 15.1171875 C1.36445312 16.18710937 1.37734375 17.25703125 1.390625 18.359375 C1.41157227 19.34389648 1.43251953 20.32841797 1.45410156 21.34277344 C0.88098889 24.69640696 -0.43284083 25.85922021 -3 28 C-2.6891977 24.83316436 -2.37604334 21.66656534 -2.0625 18.5 C-1.97548828 17.613125 -1.88847656 16.72625 -1.79882812 15.8125 C-1.27446908 10.53006818 -0.68264462 5.26435854 0 0 Z " fill="#E7F6E7" transform="translate(611,328)"/>
<path d="M0 0 C0.71027344 0.144375 1.42054688 0.28875 2.15234375 0.4375 C3.07144531 0.623125 3.99054688 0.80875 4.9375 1 C5.85402344 1.185625 6.77054688 1.37125 7.71484375 1.5625 C10.48861105 2.17728015 10.48861105 2.17728015 13 1 C13.66 1.33 14.32 1.66 15 2 C15 3.98 15 5.96 15 8 C10.39740843 8 9.02310436 7.04296676 5.25 4.5625 C3.77273437 3.60537109 3.77273437 3.60537109 2.265625 2.62890625 C1.51796875 2.09136719 0.7703125 1.55382812 0 1 C0 0.67 0 0.34 0 0 Z " fill="#0F9250" transform="translate(136,560)"/>
<path d="M0 0 C8.44430279 0.51755404 16.68086307 1.4560881 25 3 C25 3.33 25 3.66 25 4 C15.59771406 4.1170409 6.37104106 3.88495497 -3 3 C-2.01 2.67 -1.02 2.34 0 2 C0 1.34 0 0.68 0 0 Z " fill="#49B85B" transform="translate(339,2)"/>
<path d="M0 0 C1.32 0.33 2.64 0.66 4 1 C2.54782324 2.50596108 1.08807139 4.00462104 -0.375 5.5 C-1.18710937 6.3353125 -1.99921875 7.170625 -2.8359375 8.03125 C-5 10 -5 10 -7 10 C-7 10.66 -7 11.32 -7 12 C-7.66 12 -8.32 12 -9 12 C-9 10.35 -9 8.7 -9 7 C-6.33333333 5.66666667 -3.66666667 4.33333333 -1 3 C-0.67 2.01 -0.34 1.02 0 0 Z " fill="#4AB85A" transform="translate(516,524)"/>
<path d="M0 0 C0.66 0.33 1.32 0.66 2 1 C-1 3 -1 3 -4 3 C-4 3.66 -4 4.32 -4 5 C-3.34 5.33 -2.68 5.66 -2 6 C-8.625 7 -8.625 7 -12 7 C-12.33 7.99 -12.66 8.98 -13 10 C-14.98 10 -16.96 10 -19 10 C-14.59471979 6.44188906 -10.75487737 4 -5 4 C-5 3.34 -5 2.68 -5 2 C-2.625 0.9375 -2.625 0.9375 0 0 Z " fill="#61C06C" transform="translate(185,24)"/>
<path d="M0 0 C1.32 0.33 2.64 0.66 4 1 C4 9.25 4 17.5 4 26 C3.67 26 3.34 26 3 26 C0.88838269 8.14350797 0.88838269 8.14350797 0 0 Z " fill="#E4F6E6" transform="translate(608,258)"/>
<path d="M0 0 C0.33 0.99 0.66 1.98 1 3 C-1.33333333 5.33333333 -3.66666667 7.66666667 -6 10 C-6.99 10 -7.98 10 -9 10 C-9 10.99 -9 11.98 -9 13 C-9.99 13 -10.98 13 -12 13 C-10.55922954 9.63820226 -8.75249979 7.40843732 -6 5 C-5.34 5 -4.68 5 -4 5 C-3.71125 4.360625 -3.4225 3.72125 -3.125 3.0625 C-2 1 -2 1 0 0 Z " fill="#2DAC4D" transform="translate(439,371)"/>
<path d="M0 0 C2.6072902 2.6072902 3.48026787 5.5359257 4.6875 8.9375 C4.92533203 9.57107422 5.16316406 10.20464844 5.40820312 10.85742188 C7.12148952 15.63553144 7.12148952 15.63553144 6 19 C5.01 18.67 4.02 18.34 3 18 C1.73638028 12.01314152 0.67581523 6.08233706 0 0 Z " fill="#55BC64" transform="translate(589,190)"/>
<path d="M0 0 C0.33 0 0.66 0 1 0 C1.05447047 1.41623216 1.09300508 2.83308191 1.125 4.25 C1.14820313 5.03890625 1.17140625 5.8278125 1.1953125 6.640625 C0.9828378 9.20731941 0.28654105 10.7916067 -1 13 C-2.32 13 -3.64 13 -5 13 C-4.54803755 11.39402675 -4.08817673 9.79027492 -3.625 8.1875 C-3.36976562 7.29417969 -3.11453125 6.40085938 -2.8515625 5.48046875 C-2 3 -2 3 0 0 Z " fill="#49B656" transform="translate(21,195)"/>
<path d="M0 0 C1.32 0 2.64 0 4 0 C4.33 1.65 4.66 3.3 5 5 C4.34 5 3.68 5 3 5 C3.99 6.98 4.98 8.96 6 11 C5.01 11 4.02 11 3 11 C-1.06153846 4.6 -1.06153846 4.6 -0.75 1.5625 C-0.5025 1.046875 -0.255 0.53125 0 0 Z " fill="#159050" transform="translate(42,456)"/>
<path d="M0 0 C0.66 0.66 1.32 1.32 2 2 C1.98252073 4.75589777 1.86136729 7.38786676 1.625 10.125 C1.56828125 10.87910156 1.5115625 11.63320313 1.453125 12.41015625 C1.3115535 14.27418096 1.15700041 16.13721137 1 18 C0.67 18 0.34 18 0 18 C-0.66 12.72 -1.32 7.44 -2 2 C-1.34 2 -0.68 2 0 2 C0 1.34 0 0.68 0 0 Z " fill="#E4F6ED" transform="translate(182,246)"/>
<path d="M0 0 C1.8125 0.8125 1.8125 0.8125 4 2 C5.66140763 2.67966676 7.32700041 3.34938905 9 4 C8.67 5.65 8.34 7.3 8 9 C4.01618925 6.83735988 1.11016455 4.28788824 -2 1 C-1.34 0.67 -0.68 0.34 0 0 Z " fill="#1D9558" transform="translate(116,543)"/>
<path d="M0 0 C0.99 0.33 1.98 0.66 3 1 C2.34 3.97 1.68 6.94 1 10 C-0.98 10 -2.96 10 -5 10 C-4.01 9.67 -3.02 9.34 -2 9 C-2.04125 7.88625 -2.0825 6.7725 -2.125 5.625 C-2 2 -2 2 0 0 Z " fill="#139253" transform="translate(430,329)"/>
<path d="M0 0 C2.04436837 3.06655255 2.54390211 4.87109668 3.1875 8.4375 C3.36667969 9.38496094 3.54585937 10.33242187 3.73046875 11.30859375 C3.98919608 13.89211739 3.81315079 15.56054763 3 18 C2.54625 17.34 2.0925 16.68 1.625 16 C1.08875 15.34 0.5525 14.68 0 14 C-0.66 14 -1.32 14 -2 14 C-2 13.01 -2 12.02 -2 11 C-1.34 11 -0.68 11 0 11 C0 7.37 0 3.74 0 0 Z " fill="#54B961" transform="translate(603,234)"/>
<path d="M0 0 C1.17935653 4.12774787 1.25851048 5.53468113 -0.875 9.375 C-1.57625 10.24125 -2.2775 11.1075 -3 12 C-3.33 12 -3.66 12 -4 12 C-4 8.37 -4 4.74 -4 1 C-2 0 -2 0 0 0 Z " fill="#43B752" transform="translate(581,434)"/>
<path d="M0 0 C0.66 0.33 1.32 0.66 2 1 C1.34 6.94 0.68 12.88 0 19 C-0.66 19 -1.32 19 -2 19 C-3.23051636 15.40377262 -2.79495922 12.64063076 -2.125 8.9375 C-1.94195312 7.89464844 -1.75890625 6.85179687 -1.5703125 5.77734375 C-1 3 -1 3 0 0 Z " fill="#CFECDC" transform="translate(211,378)"/>
<path d="M0 0 C2.20302461 3.30453692 2.25465524 4.08067006 1.9375 7.875 C1.88464844 8.71804688 1.83179688 9.56109375 1.77734375 10.4296875 C0.72095662 13.92266604 -1.31845718 15.60591857 -4 18 C-3.52319861 15.56201552 -3.04365871 13.12462484 -2.5625 10.6875 C-2.42779297 9.99720703 -2.29308594 9.30691406 -2.15429688 8.59570312 C-1.57225668 5.65710993 -0.94847772 2.84543315 0 0 Z " fill="#53BA5F" transform="translate(475,269)"/>
<path d="M0 0 C0.66 0.66 1.32 1.32 2 2 C2.66 1.34 3.32 0.68 4 0 C4.66 0.66 5.32 1.32 6 2 C5.7578125 4.3828125 5.7578125 4.3828125 5.125 7.125 C4.92132813 8.03507812 4.71765625 8.94515625 4.5078125 9.8828125 C4.34023438 10.58148438 4.17265625 11.28015625 4 12 C3.67 12 3.34 12 3 12 C3 10.02 3 8.04 3 6 C2.34 6 1.68 6 1 6 C0.67 6.66 0.34 7.32 0 8 C0 5.36 0 2.72 0 0 Z " fill="#EEFAEF" transform="translate(466,280)"/>
<path d="M0 0 C7.06608191 -0.13794954 13.97360585 0.25194283 21 1 C21 1.33 21 1.66 21 2 C16.71 2 12.42 2 8 2 C8 2.66 8 3.32 8 4 C7.01 4 6.02 4 5 4 C5 3.34 5 2.68 5 2 C3.35 2 1.7 2 0 2 C0 1.34 0 0.68 0 0 Z " fill="#53BD63" transform="translate(315,0)"/>
<path d="M0 0 C0.66 0.33 1.32 0.66 2 1 C1.01 5.62 0.02 10.24 -1 15 C-1.33 15 -1.66 15 -2 15 C-2.95261487 10.23692563 -3.08333357 5.8333472 -3 1 C-2.01 1.495 -2.01 1.495 -1 2 C-0.67 1.34 -0.34 0.68 0 0 Z " fill="#EEF8ED" transform="translate(475,263)"/>
<path d="M0 0 C0.33 0 0.66 0 1 0 C1.66 5.94 2.32 11.88 3 18 C2.34 18 1.68 18 1 18 C-1.51005664 14.23491505 -1.0258295 11.60538391 -0.625 7.3125 C-0.56828125 6.61060547 -0.5115625 5.90871094 -0.453125 5.18554688 C-0.31195359 3.45619715 -0.15728041 1.72795912 0 0 Z " fill="#189557" transform="translate(189,312)"/>
<path d="M0 0 C0.66 0 1.32 0 2 0 C2.69710731 1.28650706 3.38242876 2.57940665 4.0625 3.875 C4.63677734 4.95394531 4.63677734 4.95394531 5.22265625 6.0546875 C5.47917969 6.69664062 5.73570313 7.33859375 6 8 C5.67 8.66 5.34 9.32 5 10 C4.34 9.67 3.68 9.34 3 9 C3 8.01 3 7.02 3 6 C1.68 6.99 0.36 7.98 -1 9 C-1.125 2.25 -1.125 2.25 0 0 Z " fill="#E6F3ED" transform="translate(26,433)"/>
<path d="M0 0 C1.4471984 4.34159519 0.48050392 7.48984482 -0.875 11.75 C-1.24625 12.4925 -1.6175 13.235 -2 14 C-2.99 14.33 -3.98 14.66 -5 15 C-1.92482916 4.44191344 -1.92482916 4.44191344 0 0 Z " fill="#C9EAD8" transform="translate(191,350)"/>
<path d="M0 0 C0.33 0 0.66 0 1 0 C1 1.65 1 3.3 1 5 C1.66 5 2.32 5 3 5 C3.33 4.34 3.66 3.68 4 3 C4 4.65 4 6.3 4 8 C3.34 7.67 2.68 7.34 2 7 C1.34 8.98 0.68 10.96 0 13 C-0.33 13 -0.66 13 -1 13 C-1.02686553 11.02090602 -1.04633375 9.04171029 -1.0625 7.0625 C-1.07410156 5.96035156 -1.08570313 4.85820312 -1.09765625 3.72265625 C-1 1 -1 1 0 0 Z " fill="#33B644" transform="translate(12,227)"/>
<path d="M0 0 C2.18840439 3.28260659 4.15885893 6.50818073 6 10 C5.67 10.66 5.34 11.32 5 12 C3.02 11.34 1.04 10.68 -1 10 C-0.835 9.278125 -0.67 8.55625 -0.5 7.8125 C-0.02412881 5.13572455 0.077443 2.71050513 0 0 Z " fill="#4FBA5C" transform="translate(578,166)"/>
<path d="M0 0 C1.07765625 0.01804688 2.1553125 0.03609375 3.265625 0.0546875 C4.49539062 0.08949219 4.49539062 0.08949219 5.75 0.125 C5.75 0.455 5.75 0.785 5.75 1.125 C4.86957031 1.22296875 3.98914063 1.3209375 3.08203125 1.421875 C1.92058594 1.57140625 0.75914062 1.7209375 -0.4375 1.875 C-2.16033203 2.08382812 -2.16033203 2.08382812 -3.91796875 2.296875 C-7.60340508 3.21283338 -9.4906409 4.56830569 -12.25 7.125 C-12.91 6.795 -13.57 6.465 -14.25 6.125 C-9.66315744 1.21052582 -6.76212921 -0.14700281 0 0 Z " fill="#BCE5C2" transform="translate(138.25,149.875)"/>
<path d="M0 0 C0 0.66 0 1.32 0 2 C-0.66 2 -1.32 2 -2 2 C-2 2.66 -2 3.32 -2 4 C-3.65 4 -5.3 4 -7 4 C-7.33 4.99 -7.66 5.98 -8 7 C-10.475 6.01 -10.475 6.01 -13 5 C-10.54278328 3.36185552 -8.65432189 2.38047801 -5.9375 1.375 C-5.24527344 1.11460938 -4.55304688 0.85421875 -3.83984375 0.5859375 C-2 0 -2 0 0 0 Z " fill="#57BB61" transform="translate(208,16)"/>
<path d="M0 0 C0.33 1.32 0.66 2.64 1 4 C1.66 4 2.32 4 3 4 C3.125 10.625 3.125 10.625 2 14 C1.34 14 0.68 14 0 14 C0 9.38 0 4.76 0 0 Z " fill="#108E4C" transform="translate(211,384)"/>
<path d="M0 0 C3.057952 1.73559438 5.63379989 3.38472619 8 6 C7.67 6.66 7.34 7.32 7 8 C4.69 7.34 2.38 6.68 0 6 C0 4 0 2 0 0 Z " fill="#1A9255" transform="translate(158,186)"/>
<path d="M0 0 C0.66 0.33 1.32 0.66 2 1 C0.45610594 3.05852541 -1.08715203 5.10974701 -2.6875 7.125 C-4.19115411 8.89162244 -4.19115411 8.89162244 -4 11 C-5.65 10.67 -7.3 10.34 -9 10 C-8.04882866 8.8274869 -7.08882991 7.66212985 -6.125 6.5 C-5.32449219 5.52546875 -5.32449219 5.52546875 -4.5078125 4.53125 C-4.01023437 4.0259375 -3.51265625 3.520625 -3 3 C-2.34 3 -1.68 3 -1 3 C-0.67 2.01 -0.34 1.02 0 0 Z " fill="#57BC66" transform="translate(105,74)"/>
<path d="M0 0 C4.02992782 0.55312735 8.02022924 1.1558062 12 2 C12.33 3.32 12.66 4.64 13 6 C11.58208592 5.54554036 10.16571954 5.08625056 8.75 4.625 C7.96109375 4.36976563 7.1721875 4.11453125 6.359375 3.8515625 C4.13372042 3.04826333 2.09068328 2.10288338 0 1 C0 0.67 0 0.34 0 0 Z " fill="#299A63" transform="translate(184,586)"/>
<path d="M0 0 C3.8718417 1.25573244 6.02838671 2.36808079 8 6 C8.1875 8.75 8.1875 8.75 8 11 C5.0843836 7.45960866 2.49872182 3.8373228 0 0 Z " fill="#189356" transform="translate(48,471)"/>
<path d="M0 0 C0.89203125 0.20367187 1.7840625 0.40734375 2.703125 0.6171875 C3.37859375 0.78476562 4.0540625 0.95234375 4.75 1.125 C4.75 1.455 4.75 1.785 4.75 2.125 C3.73679688 2.21587891 3.73679688 2.21587891 2.703125 2.30859375 C1.81109375 2.39238281 0.9190625 2.47617187 0 2.5625 C-0.88171875 2.64371094 -1.7634375 2.72492188 -2.671875 2.80859375 C-4.94350452 3.08738465 -7.04851823 3.51290577 -9.25 4.125 C-9.25 3.135 -9.25 2.145 -9.25 1.125 C-5.82794357 -1.03377391 -3.8855015 -0.92025036 0 0 Z " fill="#1F9458" transform="translate(227.25,435.875)"/>
<path d="M0 0 C0.33 0 0.66 0 1 0 C1.22119939 2.62450086 1.42746669 5.24870486 1.625 7.875 C1.68945312 8.62136719 1.75390625 9.36773437 1.8203125 10.13671875 C1.96087365 12.0870047 1.98759849 14.04469467 2 16 C1.34 16.66 0.68 17.32 0 18 C-1.30062431 14.18483536 -0.89369853 10.72438237 -0.5625 6.75 C-0.46066406 5.48671875 -0.35882813 4.2234375 -0.25390625 2.921875 C-0.17011719 1.95765625 -0.08632812 0.9934375 0 0 Z " fill="#21955B" transform="translate(180,388)"/>
<path d="M0 0 C1.32 0 2.64 0 4 0 C5.3271261 3.9813783 5.06915913 7.85045227 5 12 C4.67 12 4.34 12 4 12 C4 9.69 4 7.38 4 5 C2.68 5.33 1.36 5.66 0 6 C0 4.02 0 2.04 0 0 Z " fill="#E0F5EB" transform="translate(208,266)"/>
<path d="M0 0 C2.97 0.495 2.97 0.495 6 1 C6.33 3.31 6.66 5.62 7 8 C5.8274869 7.04882866 4.66212985 6.08882991 3.5 5.125 C2.8503125 4.59132813 2.200625 4.05765625 1.53125 3.5078125 C1.0259375 3.01023437 0.520625 2.51265625 0 2 C0 1.34 0 0.68 0 0 Z " fill="#E4F2E8" transform="translate(209,470)"/>
<path d="M0 0 C0.66 0 1.32 0 2 0 C2 0.66 2 1.32 2 2 C3.65 1.67 5.3 1.34 7 1 C7 1.66 7 2.32 7 3 C5.25 4.5078125 5.25 4.5078125 3 6.125 C2.2575 6.66382812 1.515 7.20265625 0.75 7.7578125 C0.1725 8.16773437 -0.405 8.57765625 -1 9 C-1 8.01 -1 7.02 -1 6 C-0.34 6 0.32 6 1 6 C0.67 4.02 0.34 2.04 0 0 Z " fill="#DDF4E1" transform="translate(83,88)"/>
<path d="M0 0 C0.66 0.33 1.32 0.66 2 1 C0.47793991 3.62901288 -0.84365964 5.84365964 -3 8 C-5.625 7.625 -5.625 7.625 -8 7 C-5.4837822 4.39391727 -2.94865641 2.10618315 0 0 Z " fill="#5EC26D" transform="translate(138,49)"/>
<path d="M0 0 C4.95 0 9.9 0 15 0 C15 0.33 15 0.66 15 1 C10.71 1.66 6.42 2.32 2 3 C1.34 2.01 0.68 1.02 0 0 Z " fill="#FEFAFD" transform="translate(254,0)"/>
<path d="M0 0 C0.99 0 1.98 0 3 0 C3 0.66 3 1.32 3 2 C6.63 2 10.26 2 14 2 C14 2.33 14 2.66 14 3 C7.73 3 1.46 3 -5 3 C-5 2.67 -5 2.34 -5 2 C-3.35 2 -1.7 2 0 2 C0 1.34 0 0.68 0 0 Z " fill="#F4FAF7" transform="translate(261,609)"/>
<path d="M0 0 C-0.33 1.32 -0.66 2.64 -1 4 C-3.64 3.34 -6.28 2.68 -9 2 C-6.98558063 -2.02883874 -3.72407517 -0.90585612 0 0 Z " fill="#159053" transform="translate(213,593)"/>
<path d="M0 0 C1.65 0.33 3.3 0.66 5 1 C5 1.66 5 2.32 5 3 C5.66 3.33 6.32 3.66 7 4 C1.25 5.125 1.25 5.125 -1 4 C-0.67 2.68 -0.34 1.36 0 0 Z " fill="#48BA58" transform="translate(435,577)"/>
<path d="M0 0 C1.08667969 0.29197266 1.08667969 0.29197266 2.1953125 0.58984375 C2.74960938 0.74582031 3.30390625 0.90179687 3.875 1.0625 C2.885 1.7225 1.895 2.3825 0.875 3.0625 C1.205 3.7225 1.535 4.3825 1.875 5.0625 C-1.50003669 3.8766763 -3.77222731 2.78676311 -6.125 0.0625 C-3.57797384 -1.21101308 -2.6967055 -0.73941925 0 0 Z " fill="#1C995B" transform="translate(160.125,570.9375)"/>
<path d="M0 0 C0.33 1.98 0.66 3.96 1 6 C-3.455 5.01 -3.455 5.01 -8 4 C-2 0 -2 0 0 0 Z " fill="#42B05C" transform="translate(459,425)"/>
<path d="M0 0 C0.33 0 0.66 0 1 0 C1 3.63 1 7.26 1 11 C0.34 11 -0.32 11 -1 11 C-1.66 12.32 -2.32 13.64 -3 15 C-2.68917128 13.24970238 -2.37626821 11.49977306 -2.0625 9.75 C-1.88847656 8.77546875 -1.71445313 7.8009375 -1.53515625 6.796875 C-1.09620271 4.50278205 -0.59651408 2.25708029 0 0 Z " fill="#63BD6E" transform="translate(10,225)"/>
<path d="M0 0 C1.65 0 3.3 0 5 0 C5 0.99 5 1.98 5 3 C5.99 2.67 6.98 2.34 8 2 C7.67 2.99 7.34 3.98 7 5 C6.01 4.67 5.02 4.34 4 4 C3.67 4.66 3.34 5.32 3 6 C2.67 5.01 2.34 4.02 2 3 C1.01 2.67 0.02 2.34 -1 2 C-0.67 1.34 -0.34 0.68 0 0 Z " fill="#44BA52" transform="translate(486,202)"/>
<path d="M0 0 C2 1.375 2 1.375 4 3 C4 3.66 4 4.32 4 5 C4.66 5 5.32 5 6 5 C7.625 7 7.625 7 9 9 C8.67 9.66 8.34 10.32 8 11 C5.5625 9.75 5.5625 9.75 3 8 C2.375 5.9375 2.375 5.9375 2 4 C1.01 3.34 0.02 2.68 -1 2 C-0.67 1.34 -0.34 0.68 0 0 Z " fill="#62BF6D" transform="translate(538,107)"/>
<path d="M0 0 C0.99 0.33 1.98 0.66 3 1 C1.52307692 5.67692308 1.52307692 5.67692308 -1.125 7.3125 C-2.053125 7.6528125 -2.053125 7.6528125 -3 8 C-3.75 6.25 -3.75 6.25 -4 4 C-2.0625 1.75 -2.0625 1.75 0 0 Z " fill="#45B956" transform="translate(84,95)"/>
<path d="M0 0 C1.17949219 0.01804688 2.35898437 0.03609375 3.57421875 0.0546875 C4.92966797 0.08949219 4.92966797 0.08949219 6.3125 0.125 C6.3125 0.455 6.3125 0.785 6.3125 1.125 C3.6725 1.125 1.0325 1.125 -1.6875 1.125 C-1.6875 1.785 -1.6875 2.445 -1.6875 3.125 C-4.3275 2.795 -6.9675 2.465 -9.6875 2.125 C-6.05554504 -0.29630331 -4.30400652 -0.08522785 0 0 Z " fill="#32BA47" transform="translate(281.6875,1.875)"/>
<path d="M0 0 C0.66 0.99 1.32 1.98 2 3 C-1.96 4.98 -1.96 4.98 -6 7 C-6.66 6.34 -7.32 5.68 -8 5 C-6.68 4.67 -5.36 4.34 -4 4 C-4 3.34 -4 2.68 -4 2 C-2.68 1.34 -1.36 0.68 0 0 Z " fill="#E1F4E4" transform="translate(482,556)"/>
<path d="M0 0 C0.33 1.32 0.66 2.64 1 4 C-0.423125 4.928125 -0.423125 4.928125 -1.875 5.875 C-4.94445109 7.81970969 -4.94445109 7.81970969 -7 10 C-7.99 9.67 -8.98 9.34 -10 9 C-9.44570313 8.51789062 -8.89140625 8.03578125 -8.3203125 7.5390625 C-7.59585937 6.90742187 -6.87140625 6.27578125 -6.125 5.625 C-5.40570312 4.99851562 -4.68640625 4.37203125 -3.9453125 3.7265625 C-2.5923402 2.52573166 -1.2791655 1.2791655 0 0 Z " fill="#DDF5E1" transform="translate(519,525)"/>
<path d="M0 0 C4.62 0.66 9.24 1.32 14 2 C14 2.33 14 2.66 14 3 C12.23086176 3.22226864 10.45955629 3.42733873 8.6875 3.625 C7.70136719 3.74101562 6.71523438 3.85703125 5.69921875 3.9765625 C3 4 3 4 0 2 C0 1.34 0 0.68 0 0 Z " fill="#148F52" transform="translate(408,480)"/>
<path d="M0 0 C0.33 0.66 0.66 1.32 1 2 C-1.76756757 9.61081081 -1.76756757 9.61081081 -5 12 C-5.66 12 -6.32 12 -7 12 C-7 11.34 -7 10.68 -7 10 C-6.34 10 -5.68 10 -5 10 C-4.67 8.68 -4.34 7.36 -4 6 C-3.34 6 -2.68 6 -2 6 C-1.34 4.02 -0.68 2.04 0 0 Z " fill="#DCF4E1" transform="translate(565,468)"/>
<path d="M0 0 C2.25245881 2.68841859 3.88213958 4.64641875 5 8 C4.34 8 3.68 8 3 8 C2.67 8.66 2.34 9.32 2 10 C-1.07692308 4.58461538 -1.07692308 4.58461538 -0.6875 1.625 C-0.460625 1.08875 -0.23375 0.5525 0 0 Z " fill="#EAF5F0" transform="translate(42,462)"/>
<path d="M0 0 C1.20628008 2.33214148 2.1654738 4.49642139 3 7 C0.69 7.33 -1.62 7.66 -4 8 C-2.66666667 5.33333333 -1.33333333 2.66666667 0 0 Z " fill="#51BB5D" transform="translate(41,152)"/>
<path d="M0 0 C0.33 0.99 0.66 1.98 1 3 C0.01 3.33 -0.98 3.66 -2 4 C-1.67 5.32 -1.34 6.64 -1 8 C-2.33333333 8.66666667 -3.66666667 9.33333333 -5 10 C-5.33 9.01 -5.66 8.02 -6 7 C-4.6875 4.8125 -4.6875 4.8125 -3 3 C-2.34 3 -1.68 3 -1 3 C-0.67 2.01 -0.34 1.02 0 0 Z " fill="#D7F0DB" transform="translate(534,509)"/>
<path d="M0 0 C1.2065625 0.0309375 1.2065625 0.0309375 2.4375 0.0625 C2.7675 1.3825 3.0975 2.7025 3.4375 4.0625 C1.7875 4.3925 0.1375 4.7225 -1.5625 5.0625 C-2.2225 3.7425 -2.8825 2.4225 -3.5625 1.0625 C-2.5625 0.0625 -2.5625 0.0625 0 0 Z " fill="#EFF5F2" transform="translate(187.5625,407.9375)"/>
<path d="M0 0 C-0.66 1.32 -1.32 2.64 -2 4 C-5.63 3.34 -9.26 2.68 -13 2 C-13 1.67 -13 1.34 -13 1 C-8.62426048 0.40667939 -4.42471556 -0.13827236 0 0 Z " fill="#DFF2DE" transform="translate(357,608)"/>
<path d="M0 0 C0 0.66 0 1.32 0 2 C-0.99 2.33 -1.98 2.66 -3 3 C-2.67 4.32 -2.34 5.64 -2 7 C-3.98 6.34 -5.96 5.68 -8 5 C-3.16129032 0 -3.16129032 0 0 0 Z " fill="#D6EFD7" transform="translate(450,576)"/>
<path d="M0 0 C1.98 0 3.96 0 6 0 C6 0.99 6 1.98 6 3 C3.5 4.6875 3.5 4.6875 1 6 C0.67 4.02 0.34 2.04 0 0 Z " fill="#43B94F" transform="translate(465,561)"/>
<path d="M0 0 C0.33 0.99 0.66 1.98 1 3 C1.66 3 2.32 3 3 3 C3.33 2.34 3.66 1.68 4 1 C4.33 3.64 4.66 6.28 5 9 C0.125 4.375 0.125 4.375 -1 1 C-0.67 0.67 -0.34 0.34 0 0 Z " fill="#189355" transform="translate(57,481)"/>
<path d="M0 0 C0.66 0.99 1.32 1.98 2 3 C1.54625 3.598125 1.0925 4.19625 0.625 4.8125 C-0.63295913 6.50590652 -1.82984724 8.24477086 -3 10 C-3.99 9.34 -4.98 8.68 -6 8 C-4.73046875 6.50260417 -3.4609375 5.00520833 -2.19140625 3.5078125 C-0.9121848 1.99405921 -0.9121848 1.99405921 0 0 Z " fill="#1E9557" transform="translate(248,469)"/>
<path d="M0 0 C0.99 0 1.98 0 3 0 C3 0.66 3 1.32 3 2 C3.66 2 4.32 2 5 2 C5 3.65 5 5.3 5 7 C3.02 5.35 1.04 3.7 -1 2 C-0.67 1.34 -0.34 0.68 0 0 Z " fill="#E7F5E9" transform="translate(523,88)"/>
<path d="M0 0 C0.66 0.33 1.32 0.66 2 1 C1.67 2.65 1.34 4.3 1 6 C-0.65 6.33 -2.3 6.66 -4 7 C-4 6.34 -4 5.68 -4 5 C-3.34 5 -2.68 5 -2 5 C-1.7834375 4.0409375 -1.7834375 4.0409375 -1.5625 3.0625 C-1 1 -1 1 0 0 Z " fill="#2FAF46" transform="translate(348,561)"/>
<path d="M0 0 C0.66 0 1.32 0 2 0 C2.33 0.66 2.66 1.32 3 2 C3.66 2 4.32 2 5 2 C5 3.65 5 5.3 5 7 C4.01 7 3.02 7 2 7 C0 4 0 4 0 0 Z " fill="#1A8F53" transform="translate(19,411)"/>
<path d="M0 0 C1.32 0 2.64 0 4 0 C4.6875 2.3125 4.6875 2.3125 5 5 C3.5625 6.8125 3.5625 6.8125 2 8 C1.34 5.36 0.68 2.72 0 0 Z " fill="#EDF9EF" transform="translate(600,221)"/>
<path d="M0 0 C1.27351308 2.54702616 0.80191925 3.4282945 0.0625 6.125 C-0.13214844 6.84945312 -0.32679688 7.57390625 -0.52734375 8.3203125 C-0.68332031 8.87460938 -0.83929688 9.42890625 -1 10 C-3 8 -3 8 -3.3125 5 C-3.209375 4.01 -3.10625 3.02 -3 2 C-2.01 1.34 -1.02 0.68 0 0 Z " fill="#148F50" transform="translate(461,222)"/>
<path d="M0 0 C0 0.33 0 0.66 0 1 C-5.94 1.495 -5.94 1.495 -12 2 C-12 1.34 -12 0.68 -12 0 C-7.74433453 -1.16063604 -4.3164922 -0.76173392 0 0 Z " fill="#33B743" transform="translate(140,148)"/>
<path d="M0 0 C1.32 0.33 2.64 0.66 4 1 C4 1.66 4 2.32 4 3 C1 5 1 5 -1.1875 4.625 C-1.785625 4.41875 -2.38375 4.2125 -3 4 C-2.01 2.68 -1.02 1.36 0 0 Z " fill="#48BA59" transform="translate(115,66)"/>
<path d="M0 0 C1 2 2 4 3 6 C-2.75 4.25 -2.75 4.25 -5 2 C-3.35 1.34 -1.7 0.68 0 0 Z " fill="#EEF9EF" transform="translate(439,25)"/>
<path d="M0 0 C2.31 0.66 4.62 1.32 7 2 C4.24075815 3.80411967 3.11027897 4.0127245 -0.25 3.625 C-1.1575 3.41875 -2.065 3.2125 -3 3 C-2.01 2.01 -1.02 1.02 0 0 Z " fill="#4ABA5B" transform="translate(385,10)"/>
<path d="M0 0 C0.66 1.32 1.32 2.64 2 4 C0.71349294 4.69710731 -0.57940665 5.38242876 -1.875 6.0625 C-2.95394531 6.63677734 -2.95394531 6.63677734 -4.0546875 7.22265625 C-4.69664062 7.47917969 -5.33859375 7.73570312 -6 8 C-6.66 7.67 -7.32 7.34 -8 7 C-5.36 4.69 -2.72 2.38 0 0 Z " fill="#DEF7E1" transform="translate(507,536)"/>
<path d="M0 0 C0.33 0 0.66 0 1 0 C1.33 3.63 1.66 7.26 2 11 C-1.7037037 6.0617284 -1.7037037 6.0617284 -2 3 C-1.34 2.01 -0.68 1.02 0 0 Z " fill="#EAF8EA" transform="translate(581,440)"/>
<path d="M0 0 C0.99 0 1.98 0 3 0 C3.66 0.99 4.32 1.98 5 3 C4.67 3.99 4.34 4.98 4 6 C2.68 5.34 1.36 4.68 0 4 C0 2.68 0 1.36 0 0 Z " fill="#15934E" transform="translate(434,440)"/>
<path d="M0 0 C2.31 0.33 4.62 0.66 7 1 C7.33 2.32 7.66 3.64 8 5 C5 5 5 5 2.3125 2.5 C1.549375 1.675 0.78625 0.85 0 0 Z " fill="#5BBF64" transform="translate(176,162)"/>
<path d="M0 0 C0 0.66 0 1.32 0 2 C-1.65 2.66 -3.3 3.32 -5 4 C-5.33 3.67 -5.66 3.34 -6 3 C-7.32594105 2.63837971 -8.65938457 2.30271961 -10 2 C-6.38026598 0.68373308 -3.90432869 0 0 0 Z " fill="#53B860" transform="translate(226,11)"/>
<path d="M0 0 C0 0.66 0 1.32 0 2 C0.99 2.33 1.98 2.66 3 3 C2.67 3.99 2.34 4.98 2 6 C-1.16115776 4.63016497 -1.9927092 4.0109362 -4 1 C-2 0 -2 0 0 0 Z " fill="#2E9C63" transform="translate(112,538)"/>
<path d="M0 0 C0.66 0.33 1.32 0.66 2 1 C2.625 3.0625 2.625 3.0625 3 5 C-0.01031744 5.93423645 -0.86650268 6.04449911 -4 5 C-2.68 3.35 -1.36 1.7 0 0 Z " fill="#30AF47" transform="translate(396,513)"/>
<path d="M0 0 C4.875 4.75 4.875 4.75 6 7 C1.125 6.125 1.125 6.125 0 5 C-0.04063832 3.33382885 -0.042721 1.66611905 0 0 Z " fill="#D4E8DC" transform="translate(66,496)"/>
<path d="M0 0 C0.33 0 0.66 0 1 0 C1.29296875 6.0546875 1.29296875 6.0546875 1 8 C0.01 8.66 -0.98 9.32 -2 10 C-1.125 2.25 -1.125 2.25 0 0 Z " fill="#D2EEDE" transform="translate(458,236)"/>
<path d="M0 0 C1.67542976 0.28604898 3.34385343 0.61781233 5 1 C3.35 2.65 1.7 4.3 0 6 C-0.38218767 4.34385343 -0.71395102 2.67542976 -1 1 C-0.67 0.67 -0.34 0.34 0 0 Z " fill="#E7F7E9" transform="translate(92,81)"/>
<path d="M0 0 C0.66 0.33 1.32 0.66 2 1 C2 1.66 2 2.32 2 3 C-2.43076923 5.09230769 -2.43076923 5.09230769 -5.3125 4.625 C-5.869375 4.41875 -6.42625 4.2125 -7 4 C-1.7265625 0.77734375 -1.7265625 0.77734375 0 0 Z " fill="#66C372" transform="translate(164,34)"/>
<path d="M0 0 C2.64 0.66 5.28 1.32 8 2 C8.33 3.32 8.66 4.64 9 6 C5.88802644 4.50164236 2.91164984 2.86022073 0 1 C0 0.67 0 0.34 0 0 Z " fill="#25985C" transform="translate(136,560)"/>
<path d="M0 0 C1.98 1.65 3.96 3.3 6 5 C5.67 5.66 5.34 6.32 5 7 C3.0625 6.3125 3.0625 6.3125 1 5 C0.25 2.375 0.25 2.375 0 0 Z " fill="#DAEEE4" transform="translate(88,521)"/>
<path d="M0 0 C0.66 0.33 1.32 0.66 2 1 C1.67 2.32 1.34 3.64 1 5 C0.34 5 -0.32 5 -1 5 C-1.33 5.99 -1.66 6.98 -2 8 C-3 5 -3 5 -2 2 C-1.34 2 -0.68 2 0 2 C0 1.34 0 0.68 0 0 Z " fill="#4AB458" transform="translate(559,473)"/>
<path d="M0 0 C-1.11666174 3.34998521 -1.74694925 3.79340222 -4.5625 5.6875 C-5.20316406 6.12449219 -5.84382813 6.56148438 -6.50390625 7.01171875 C-6.99761719 7.33785156 -7.49132812 7.66398437 -8 8 C-6.48291727 4.46014029 -4.24676932 0 0 0 Z " fill="#22A249" transform="translate(427,384)"/>
<path d="M0 0 C1.485 0.99 1.485 0.99 3 2 C2.67 4.31 2.34 6.62 2 9 C-0.29013653 5.5647952 -0.17842973 4.014669 0 0 Z " fill="#32B644" transform="translate(601,236)"/>
<path d="M0 0 C1.2077558 3.62326739 0.54311128 4.64146369 -1 8 C-2.32 7.34 -3.64 6.68 -5 6 C-3.35 4.02 -1.7 2.04 0 0 Z " fill="#DBF4DF" transform="translate(541,501)"/>
<path d="M0 0 C1 2 1 2 0.44140625 3.9453125 C0.15136719 4.66460937 -0.13867188 5.38390625 -0.4375 6.125 C-0.72496094 6.84945313 -1.01242187 7.57390625 -1.30859375 8.3203125 C-1.53675781 8.87460937 -1.76492188 9.42890625 -2 10 C-2.66 8.68 -3.32 7.36 -4 6 C-2.68 4.02 -1.36 2.04 0 0 Z " fill="#41B95A" transform="translate(591,414)"/>
<path d="M0 0 C0.33 0.66 0.66 1.32 1 2 C0.3125 4.0625 0.3125 4.0625 -1 6 C-3.125 6.75 -3.125 6.75 -5 7 C-3.70700306 4.11562221 -2.34058637 2.12780579 0 0 Z " fill="#66C074" transform="translate(79,100)"/>
<path d="M0 0 C2.51083114 1.25541557 2.87125446 2.50063488 4 5 C1.36 4.67 -1.28 4.34 -4 4 C-2.68 2.68 -1.36 1.36 0 0 Z " fill="#4CBA5E" transform="translate(148,43)"/>
</svg>
